<svg height="512" viewBox="0 0 128 128" width="512" xmlns="http://www.w3.org/2000/svg"><g><g><g fill="#5360d9"><path d="m117.849 35.3a1.748 1.748 0 0 1 -1.238-.512l-7.153-7.154a1.75 1.75 0 1 1 2.474-2.475l7.154 7.154a1.75 1.75 0 0 1 -1.237 2.987z"/><path d="m125.58 27.569a1.748 1.748 0 0 1 -1.238-.512l-7.154-7.157a1.75 1.75 0 0 1 2.475-2.475l7.154 7.154a1.75 1.75 0 0 1 -1.237 2.987z"/><path d="m100.039 17.491a1.743 1.743 0 0 1 -1.237-.513l-5.59-5.589a1.75 1.75 0 1 1 2.475-2.475l5.589 5.589a1.751 1.751 0 0 1 -1.237 2.988z"/><path d="m107.77 9.76a1.743 1.743 0 0 1 -1.237-.513l-5.59-5.589a1.75 1.75 0 1 1 2.475-2.475l5.589 5.589a1.751 1.751 0 0 1 -1.237 2.988z"/></g><path d="m64.073 96.84a19.7 19.7 0 0 0 12.083-5.569c7.556-7.556 7.46-20.314.509-30.659l-18.13 18.13a12.07 12.07 0 0 0 -9.277-9.277l18.13-18.13c-10.345-6.951-23.1-7.047-30.659.509a19.7 19.7 0 0 0 -5.569 12.083c-8.434-1.209-16.633.944-22.385 6.7-10.917 10.913-8.887 30.642 4.535 44.063s33.15 15.452 44.067 4.535c5.752-5.752 7.905-13.951 6.696-22.385z" fill="#483d9b"/><path d="m44.792 125.753a8.161 8.161 0 0 0 -5.481-3.55 8.355 8.355 0 0 0 -6.544-15.225 8.359 8.359 0 0 0 -11.558-11.557 8.352 8.352 0 0 0 -15.225-6.545 8.312 8.312 0 0 0 -2.32-4.483 8.32 8.32 0 0 0 -1.427-1.129c-1.921 10.217 1.93 22.284 11.073 31.426 9.158 9.159 21.253 13.01 31.482 11.063z" fill="#ace233"/><path d="m114.092 29.793-7.524.916-9.277-9.277.916-7.524 12.158-12.158 15.885 15.885z" fill="#ace233"/><circle cx="46.692" cy="81.308" fill="#2b1f72" r="12.126"/><path d="m106.57 30.71-6.11 6.11-2.47 2.47-21.56 21.56-2.47 2.47-5.54 5.54-9.88 9.88a12.081 12.081 0 0 0 -9.28-9.28l9.88-9.88 5.54-5.53v-.01l2.47-2.47 5.54-5.53v-.01l10.48-10.48 5.54-5.54 2.47-2.47h.01l6.1-6.11z" fill="#f0f0fb"/><path d="m20.664 107.523c-5.3-5.3-11.8-8.645-17.488-9.548a41.056 41.056 0 0 0 27.008 26.9c-.934-5.655-4.265-12.098-9.52-17.352z" fill="#483d9b"/><path d="m22.269 79.017a1.756 1.756 0 0 1 -.723-.157l-3.479-1.582a1.75 1.75 0 1 1 1.449-3.186l3.478 1.581a1.75 1.75 0 0 1 -.725 3.344z" fill="#ff3838"/><path d="m52.316 110.959a1.75 1.75 0 0 1 -1.594-1.026l-1.582-3.479a1.75 1.75 0 0 1 3.187-1.448l1.581 3.478a1.751 1.751 0 0 1 -1.592 2.475z" fill="#ff3838"/><g fill="#d6d6ea"><path d="m91.19 27.54h-.01l-2.47 2.47 9.28 9.28 2.47-2.47v-.01z"/><path d="m84.828 34.863h3.493v13.124h-3.493z" transform="matrix(.707 -.707 .707 .707 -3.935 73.351)"/><path d="m72.69 46.03v.01l9.27 9.27h.01l2.47-2.47-9.28-9.28z"/><path d="m64.68 54.04v.01l9.27 9.27h.01l2.47-2.47-9.28-9.28z"/><path d="m60.786 58.898h3.507v13.124h-3.507z" transform="matrix(.707 -.707 .707 .707 -27.97 63.396)"/></g></g><g><path d="m127.487 16.4-15.887-15.887a1.749 1.749 0 0 0 -2.475 0l-3.19 3.19-2.52-2.52a1.75 1.75 0 1 0 -2.475 2.475l2.52 2.519-5.256 5.257-2.52-2.52a1.75 1.75 0 1 0 -2.475 2.475l3.155 3.154-.741 6.079-6.912 6.913-21.579 21.582c-11.058-6.787-23.9-6.255-31.64 1.489a21.142 21.142 0 0 0 -5.826 11.385 30.029 30.029 0 0 0 -12.708 1.481 1.75 1.75 0 0 0 1.17 3.3 26.976 26.976 0 0 1 12.784-1.112 1.75 1.75 0 0 0 1.988-1.553 17.966 17.966 0 0 1 5.065-11.026c6.423-6.421 17.135-6.915 26.635-1.428l-15.944 15.94a13.876 13.876 0 1 0 11.751 11.751l15.939-15.939c4.316 7.476 4.994 15.866 1.7 22.322a1.75 1.75 0 1 0 3.117 1.591c3.955-7.75 3.058-17.768-2.272-26.457l21.569-21.57 6.913-6.912 6.079-.741 3.154 3.155a1.75 1.75 0 0 0 2.475-2.475l-2.52-2.52 5.257-5.256 2.519 2.52a1.75 1.75 0 0 0 2.475-2.475l-2.52-2.52 3.19-3.19a1.749 1.749 0 0 0 .005-2.477zm-17.122-12.175 13.41 13.41-3.189 3.189-7.3 7.3-6.079.74-8.076-8.064.74-6.079 7.3-7.3zm-19.152 39.364-6.8-6.8 5.538-5.537 6.8 6.8zm-8.013 8.011-6.8-6.8 5.537-5.538 6.8 6.8zm-17.287 3.685 6.8 6.8-5.538 5.537-6.8-6.8zm9.276 4.328-6.8-6.8 5.538-5.538 6.8 6.8zm-21.16 29.032a10.376 10.376 0 0 1 -14.674-14.674 10.376 10.376 0 1 1 14.674 14.674zm4.805-14.034a13.89 13.89 0 0 0 -6.342-5.905l5.408-5.406 6.8 6.8-5.409 5.409c-.135-.303-.297-.609-.457-.898zm40.391-39.034-6.8-6.8 4.868-4.867 6.8 6.8z"/><path d="m63.824 95.107a1.751 1.751 0 0 0 -1.484 1.981c1.172 8.17-1.088 15.787-6.2 20.9a21.972 21.972 0 0 1 -10.64 5.823c-.151-.177-.3-.357-.465-.525a10.038 10.038 0 0 0 -2.281-1.713 10.107 10.107 0 0 0 -7.21-16.649 10.1 10.1 0 0 0 -12.28-12.277 10.107 10.107 0 0 0 -16.649-7.209 10.07 10.07 0 0 0 -1.715-2.282c-.194-.2-.4-.379-.6-.552-.038-.032-.08-.053-.12-.081a21.977 21.977 0 0 1 5.835-10.662 1.75 1.75 0 0 0 -2.474-2.475c-11.582 11.581-9.548 32.46 4.534 46.542a40.222 40.222 0 0 0 24.031 11.9 33.344 33.344 0 0 0 3.418.178 26.479 26.479 0 0 0 19.093-7.541c5.9-5.9 8.521-14.6 7.191-23.871a1.75 1.75 0 0 0 -1.984-1.487zm-57.967 5.293a33.192 33.192 0 0 1 13.57 8.363 33.245 33.245 0 0 1 8.311 13.424 39.755 39.755 0 0 1 -21.881-21.787zm25.834 23.07a35.747 35.747 0 0 0 -9.79-17.181 35.684 35.684 0 0 0 -17.337-9.832 32.328 32.328 0 0 1 -.907-4.918 29.081 29.081 0 0 1 -.122-4.416 6.591 6.591 0 0 1 .725 2.051 1.75 1.75 0 0 0 3.229.6 6.6 6.6 0 0 1 12.036 5.174 1.75 1.75 0 0 0 2.635 1.942 6.609 6.609 0 0 1 9.137 9.138 1.75 1.75 0 0 0 1.946 2.634 6.6 6.6 0 0 1 5.174 12.038 1.75 1.75 0 0 0 .6 3.229 6.577 6.577 0 0 1 1.672.538 30.571 30.571 0 0 1 -8.998-1z"/><path d="m73.488 91.311a17.1 17.1 0 0 1 -1.743 1.216 1.75 1.75 0 1 0 1.818 2.99 20.541 20.541 0 0 0 2.1-1.466 1.75 1.75 0 1 0 -2.178-2.74z"/><path d="m21.546 78.86a1.75 1.75 0 0 0 1.448-3.187l-3.478-1.581a1.75 1.75 0 1 0 -1.449 3.186z"/><path d="m52.316 110.959a1.751 1.751 0 0 0 1.592-2.475l-1.581-3.478a1.75 1.75 0 0 0 -3.187 1.448l1.582 3.479a1.75 1.75 0 0 0 1.594 1.026z"/></g></g></svg>